<svg viewBox="0 0 1036.1813 447.85999" xmlns="http://www.w3.org/2000/svg">
  <defs>
    <clipPath clipPathUnits="userSpaceOnUse" id="clipPath54">
      <path d="M 0,335.895 H 777.136 V 0 H 0 Z" id="path52"></path>
    </clipPath>
  </defs>
  <style>.cls-1{fill:#1a1a1a;}</style>
  <g id="g10" transform="matrix(1.333333, 0, 0, -1.333333, 0, 447.859985)">
    <g id="g12" transform="translate(162.7261,151.9261)">
      <path d="m 0,0 -9.438,-0.024 -0.176,46.24 9.438,0.024 z" class="cls-1" id="path14"></path>
    </g>
    <g id="g48">
      <g id="g50" clip-path="url(#clipPath54)">
        <g id="g80" transform="translate(498.6607,206.9227)">
          <path d="m 0,0 c -0.096,5.667 2.305,11.952 12.426,16.88 9.915,4.828 24.156,4.863 38.869,4.872 l 145.344,0.051 0.104,-10.594 -145.344,-0.05 C 40.458,11.157 28.209,11.587 20.487,8.798 13.143,6.099 11.128,3.633 11.168,-0.006" class="cls-1" id="path82"></path>
        </g>
        <g id="g84" transform="translate(493.1295,228.5941)">
          <path d="m 0,0 -103.92,-76.321 -4.563,-0.004 -4.224,-0.003 -106.504,76.316 5.973,-0.03 h 11.978 l 92.785,-66.513 90.646,66.594 h 11.977 z" class="cls-1" id="path86"></path>
        </g>
        <g id="g88" transform="translate(264.9385,217.9613)">
          <path d="m 0,0 -212.428,-0.079 -0.105,10.593 198.418,0.076 z" class="cls-1" id="path90"></path>
        </g>
        <g id="g92" transform="translate(498.6607,206.91)">
          <path d="m 0,0 c -0.096,-5.667 2.305,-11.953 12.426,-16.88 9.915,-4.828 24.156,-4.863 38.869,-4.872 l 0.104,10.593 c -10.941,0.001 -23.19,-0.429 -30.912,2.361 -7.344,2.699 -9.359,5.165 -9.319,8.804" class="cls-1" id="path94"></path>
        </g>
        <g id="g96" transform="translate(695.2994,173.9569)">
          <path d="m 0,0 c 0.096,5.667 -2.305,11.953 -12.426,16.881 -9.915,4.827 -24.155,4.862 -38.869,4.871 l -93.944,0.042 -0.105,-10.593 93.945,-0.042 c 10.941,-0.001 23.19,0.429 30.912,-2.361 7.344,-2.699 9.36,-5.165 9.319,-8.804" class="cls-1" id="path98"></path>
        </g>
        <g id="g100" transform="translate(695.2994,174.1068)">
          <path d="m 0,0 c 0.096,-5.667 -2.305,-11.952 -12.426,-16.88 -9.915,-4.828 -24.155,-4.863 -38.869,-4.872 l -145.344,-0.051 -0.104,10.594 145.344,0.05 c 10.941,0.002 23.19,-0.428 30.912,2.361 7.344,2.699 9.36,5.165 9.319,8.804" class="cls-1" id="path102"></path>
        </g>
      </g>
    </g>
  </g>
</svg>